<svg width="32" height="25" viewBox="0 0 32 25" fill="none" xmlns="http://www.w3.org/2000/svg">
<g clip-path="url(#clip0_1_282)">
<path d="M25.8047 0.331363C26.6458 0.331363 27.4375 0.468366 28.1823 0.730955C28.9141 0.993545 29.5885 1.39314 30.1875 1.9206C30.7891 2.44806 31.2448 3.03717 31.5443 3.6788C31.8438 4.32044 32 5.01687 32 5.76353V13.954C32 14.7007 31.8438 15.3971 31.5443 16.0388C31.2448 16.6804 30.7891 17.2695 30.1875 17.797C29.5859 18.3244 28.9141 18.7126 28.1823 18.9866C27.4505 19.2492 26.6589 19.3862 25.8047 19.3862H19.8594C19.3203 19.9867 18.7318 20.5553 18.1068 21.0713C17.362 21.681 16.5703 22.229 15.7161 22.7131C14.8646 23.2086 13.9505 23.6401 12.9792 24.0078C12.0182 24.3754 10.987 24.6814 9.90625 24.9348C9.59375 25.0079 9.25781 24.9234 9.02865 24.7042C8.70573 24.3891 8.73958 23.905 9.10156 23.6196C9.60677 23.2291 10.0391 22.8295 10.3854 22.43C10.7214 22.0395 10.9974 21.6399 11.2031 21.2289V21.2175C11.4323 20.7745 11.6354 20.3224 11.8151 19.8703C11.875 19.7127 11.9349 19.5438 11.9948 19.3748H6.19531C5.35417 19.3748 4.5625 19.2378 3.81771 18.9752C3.08594 18.7126 2.41406 18.313 1.8125 17.7856C1.21094 17.2604 0.755208 16.669 0.455729 16.0273C0.15625 15.3743 0 14.6801 0 13.9426V5.75212C0 5.01458 0.15625 4.32044 0.455729 3.66739C0.755208 3.02576 1.21094 2.43664 1.8125 1.90918C2.41406 1.38172 3.08594 0.982128 3.81771 0.719539C4.55208 0.456949 5.34375 0.319946 6.19531 0.319946C12.7318 0.319946 19.263 0.331363 25.8047 0.331363ZM4.33333 11.1249L6.42188 10.9925C6.46615 11.3327 6.5599 11.5953 6.69792 11.7711C6.92448 12.0611 7.2474 12.2072 7.66927 12.2072C7.98177 12.2072 8.22396 12.1319 8.39323 11.9835C8.5625 11.8351 8.64844 11.6615 8.64844 11.4674C8.64844 11.2825 8.56771 11.1135 8.40886 10.9674C8.2474 10.8189 7.8724 10.6819 7.28385 10.5495C6.31771 10.3326 5.63281 10.0403 5.22135 9.67725C4.80729 9.3142 4.59896 8.85524 4.59896 8.29124C4.59896 7.92361 4.70573 7.57426 4.91667 7.24773C5.13021 6.91893 5.44792 6.6609 5.8724 6.47367C6.29688 6.28643 6.88281 6.19281 7.625 6.19281C8.53646 6.19281 9.22917 6.36406 9.70573 6.70657C10.1823 7.04908 10.4661 7.59252 10.5573 8.33691L8.48698 8.46021C8.43229 8.13369 8.3151 7.89621 8.14063 7.75008C7.96354 7.60166 7.71875 7.52631 7.40885 7.52631C7.15365 7.52631 6.95833 7.58111 6.83073 7.69071C6.70052 7.80031 6.63542 7.93275 6.63542 8.0903C6.63542 8.20447 6.6901 8.30494 6.79427 8.39856C6.89583 8.49218 7.14063 8.57895 7.52865 8.66343C8.49219 8.87122 9.17969 9.08586 9.59375 9.29821C10.0104 9.51285 10.3125 9.77772 10.5026 10.0951C10.6901 10.4102 10.7865 10.7664 10.7865 11.1592C10.7865 11.6181 10.6615 12.0451 10.4089 12.4333C10.1563 12.8215 9.80208 13.1183 9.34896 13.3193C8.89583 13.5202 8.32552 13.6207 7.63542 13.6207C6.42448 13.6207 5.58594 13.3855 5.11979 12.9151C4.65885 12.447 4.39583 11.8488 4.33333 11.1249ZM12.0885 6.31611H14.9922L16.099 10.6888L17.2083 6.31611H20.099V13.5019H18.2969V8.02408L16.9062 13.5019H15.2734L13.888 8.02408V13.5019H12.0859V6.31611H12.0885ZM21.2057 11.1249L23.2969 10.9925C23.3411 11.3327 23.4349 11.5953 23.5729 11.7711C23.7995 12.0611 24.125 12.2072 24.5443 12.2072C24.8568 12.2072 25.099 12.1319 25.2682 11.9835C25.4375 11.8351 25.5234 11.6615 25.5234 11.4674C25.5234 11.2825 25.4427 11.1135 25.2839 10.9674C25.1224 10.8212 24.7474 10.6819 24.1589 10.5495C23.1927 10.3326 22.5078 10.0403 22.0964 9.67725C21.6849 9.3142 21.474 8.85524 21.474 8.29124C21.474 7.92361 21.5807 7.57426 21.7917 7.24773C22.0026 6.91893 22.3229 6.6609 22.7474 6.47367C23.1745 6.28643 23.7578 6.19281 24.5 6.19281C25.4115 6.19281 26.1042 6.36406 26.5807 6.70657C27.0573 7.04908 27.3411 7.59252 27.4323 8.33691L25.362 8.46021C25.3073 8.13369 25.1901 7.89621 25.0156 7.75008C24.8385 7.60166 24.5938 7.52631 24.2839 7.52631C24.0286 7.52631 23.8333 7.58111 23.7057 7.69071C23.5755 7.80031 23.5104 7.93275 23.5104 8.0903C23.5104 8.20447 23.5651 8.30494 23.6693 8.39856C23.7708 8.49218 24.0156 8.57895 24.4036 8.66343C25.3646 8.87122 26.0547 9.08586 26.4688 9.29821C26.8854 9.51285 27.1875 9.77772 27.3776 10.0951C27.5651 10.4102 27.6615 10.7664 27.6615 11.1592C27.6615 11.6181 27.5365 12.0451 27.2839 12.4333C27.0313 12.8215 26.6771 13.1183 26.224 13.3193C25.7708 13.5202 25.2005 13.6207 24.5104 13.6207C23.2995 13.6207 22.4609 13.3855 21.9948 12.9151C21.5313 12.447 21.2682 11.8488 21.2057 11.1249ZM6.20833 1.86808C5.58333 1.86808 5.00781 1.96398 4.49219 2.1535C3.97656 2.34302 3.49479 2.62616 3.0625 3.00521C2.63021 3.38425 2.30729 3.80439 2.09115 4.25878C1.875 4.71089 1.76823 5.2178 1.76823 5.76353V13.954C1.76823 14.502 1.8776 15.0067 2.09115 15.4588C2.30729 15.9109 2.63281 16.3333 3.0625 16.7124C3.50781 17.0914 3.98698 17.386 4.5026 17.5641C5.01823 17.7536 5.58333 17.8495 6.20833 17.8495H13.1615C13.6432 17.8495 14.0391 18.1966 14.0391 18.619C14.0391 18.7149 14.0156 18.7971 13.9922 18.8816C13.8359 19.3862 13.6693 19.8931 13.4766 20.3772C13.2734 20.8932 13.0573 21.3773 12.8151 21.8523C12.6953 22.0943 12.5521 22.3272 12.3958 22.5692C13.237 22.2427 14.0286 21.8637 14.7604 21.4435C15.5286 21.0006 16.25 20.5073 16.9089 19.9685C17.5807 19.4205 18.1823 18.8199 18.7344 18.1783C18.9036 17.9774 19.1667 17.8723 19.4297 17.8723H25.8047C26.4297 17.8723 26.9922 17.7764 27.5104 17.5869C28.026 17.3974 28.5078 17.1142 28.9505 16.7329C29.3828 16.3539 29.7057 15.9337 29.9219 15.4793C30.138 15.0272 30.2474 14.5226 30.2474 13.9746V5.78408C30.2474 5.23607 30.138 4.73144 29.9219 4.27933C29.7057 3.82722 29.3828 3.4048 28.9505 3.02576C28.5182 2.64671 28.0365 2.36129 27.5208 2.17405C27.0052 1.98453 26.4271 1.89091 25.8047 1.89091C19.5885 1.88863 12.4453 1.86808 6.20833 1.86808Z" fill="#FFA726"/>
</g>
<defs>
<clipPath id="clip0_1_282">
<rect width="32" height="24.64" fill="white" transform="translate(0 0.319946)"/>
</clipPath>
</defs>
</svg>
