<svg width="12" height="12" viewBox="0 0 12 12" fill="none" xmlns="http://www.w3.org/2000/svg">
<path d="M6.00004 11.3333C5.21615 11.3333 4.47949 11.1846 3.79004 10.8871C3.1006 10.5896 2.50087 10.1858 1.99087 9.67583C1.48087 9.16583 1.07712 8.56611 0.779624 7.87667C0.482124 7.18722 0.333374 6.45056 0.333374 5.66667C0.333374 4.88278 0.482124 4.14611 0.779624 3.45667C1.07712 2.76722 1.48087 2.1675 1.99087 1.6575C2.50087 1.1475 3.1006 0.74375 3.79004 0.44625C4.47949 0.14875 5.21615 0 6.00004 0C6.78393 0 7.5206 0.14875 8.21004 0.44625C8.89948 0.74375 9.49921 1.1475 10.0092 1.6575C10.5192 2.1675 10.923 2.76722 11.2205 3.45667C11.518 4.14611 11.6667 4.88278 11.6667 5.66667C11.6667 5.92167 11.6525 6.17194 11.6242 6.4175C11.5959 6.66306 11.5487 6.90389 11.4825 7.14C11.3503 6.98889 11.1968 6.86139 11.0221 6.7575C10.8474 6.65361 10.6562 6.58278 10.4484 6.545C10.4767 6.40333 10.498 6.25931 10.5121 6.11292C10.5263 5.96653 10.5334 5.81778 10.5334 5.66667C10.5334 4.40111 10.0942 3.32917 9.21587 2.45083C8.33754 1.5725 7.2656 1.13333 6.00004 1.13333C4.73449 1.13333 3.66254 1.5725 2.78421 2.45083C1.90587 3.32917 1.46671 4.40111 1.46671 5.66667C1.46671 6.93222 1.90587 8.00417 2.78421 8.8825C3.66254 9.76083 4.73449 10.2 6.00004 10.2C6.48171 10.2 6.94212 10.1292 7.38129 9.9875C7.82046 9.84583 8.22421 9.6475 8.59254 9.3925C8.70587 9.55306 8.84518 9.69472 9.01046 9.8175C9.17573 9.94028 9.35282 10.0347 9.54171 10.1008C9.06004 10.4881 8.51935 10.7903 7.91962 11.0075C7.3199 11.2247 6.68004 11.3333 6.00004 11.3333ZM10.1084 9.06667C9.91004 9.06667 9.7424 8.99819 9.60546 8.86125C9.46851 8.72431 9.40004 8.55667 9.40004 8.35833C9.40004 8.16 9.46851 7.99236 9.60546 7.85542C9.7424 7.71847 9.91004 7.65 10.1084 7.65C10.3067 7.65 10.4743 7.71847 10.6113 7.85542C10.7482 7.99236 10.8167 8.16 10.8167 8.35833C10.8167 8.55667 10.7482 8.72431 10.6113 8.86125C10.4743 8.99819 10.3067 9.06667 10.1084 9.06667ZM7.87004 8.33L5.43337 5.89333V2.83333H6.56671V5.44L8.66337 7.53667L7.87004 8.33Z" fill="#FFA726"/>
</svg>
